<svg xmlns="http://www.w3.org/2000/svg" xmlns:xlink="http://www.w3.org/1999/xlink" viewBox="0 0 57.25 57.25"><defs><style>.a,.d{fill:none;}.b{clip-path:url(#a);}.c{fill:#fff;}.d{stroke:#fff;stroke-miterlimit:10;}</style><clipPath id="a" transform="translate(-8.88 -8.88)"><circle class="a" cx="37.5" cy="37.5" r="28.12"/></clipPath></defs><title>build</title><g class="b"><path class="c" d="M56.8,59.58a5.3,5.3,0,0,1-1.88-.34,5.24,5.24,0,0,1-1.32-.73,5.62,5.62,0,0,1-.52-.44L33.71,38.69l-.06-.07a.7.7,0,0,1-.06-.12.51.51,0,0,1,0-.4l.07-.09,1.51-1.52-.72-.71c-1.09-1.07-2.16-2.16-3.24-3.25l-1.8-1.83-3,3-.12.09a.51.51,0,0,1-.44,0,.66.66,0,0,1-.17-.12L24.43,32.4l-.71.71-1.15,1.15-.71.7,1.3,1.31a.6.6,0,0,1,.09.13.51.51,0,0,1,0,.43.67.67,0,0,1-.11.16c-.72.76-1.51,1.53-2.29,2.3l-1.18,1.16a.57.57,0,0,1-.13.1.51.51,0,0,1-.22,0,.5.5,0,0,1-.2,0,.62.62,0,0,1-.15-.1c-1.33-1.27-2.67-2.64-4-4l-2-2a.59.59,0,0,1-.09-.13.51.51,0,0,1,0-.43.61.61,0,0,1,.1-.15c1.12-1.17,2.31-2.36,3.5-3.5l.12-.07a.51.51,0,0,1,.4,0,.67.67,0,0,1,.16.11l1.33,1.29.7-.71,1.14-1.14.72-.71-1.31-1.31a.62.62,0,0,1-.1-.15.51.51,0,0,1,0-.44.74.74,0,0,1,.11-.14C20.88,26,22,24.86,23,23.76c2.14-2.18,4.34-4.43,6.59-6.55l.1-.06a.5.5,0,0,1,.21,0,.51.51,0,0,1,.21,0,.71.71,0,0,1,.17.13l1,1,.7-.56.49-.37a10.08,10.08,0,0,1,2.67-1.39,9.24,9.24,0,0,1,1.62-.39,9.42,9.42,0,0,1,1.16-.09h.18a12.41,12.41,0,0,1,6.06,1.76,14.34,14.34,0,0,1,2.19,1.52l.07.08,0,.06,0,0,0,.12,0,.14,0,.1a.41.41,0,0,1,0,.08.48.48,0,0,1-.12.16.51.51,0,0,1-.13.09l-.08,0-.12,0-.12,0-.12,0-.29-.14a8,8,0,0,0-1.63-.51,8.82,8.82,0,0,0-3.18-.06,9.56,9.56,0,0,0-2.4.74,12,12,0,0,0-2.55,1.6l-.86.7,1.34,1.34a.6.6,0,0,1,.09.12.51.51,0,0,1,0,.44.62.62,0,0,1-.12.17l-3,3,.72.71c1.09,1.07,2.16,2.16,3.24,3.25L39,32.68l1.51-1.51.08-.07a.63.63,0,0,1,.28-.08.5.5,0,0,1,.2,0l.12.08c2.18,2.18,4.35,4.32,6.51,6.46,4.28,4.23,8.71,8.6,12.95,13a5.38,5.38,0,0,1,.43.51,5.24,5.24,0,0,1,.73,1.38,5.37,5.37,0,0,1,.29,2.14,5.31,5.31,0,0,1-5.3,4.93ZM39.36,33.75c-.68.71-1.36,1.38-2,2.05l-1,1-1.51,1.51.71.71c2,2,4,4.08,6,6.13,4,4.07,8.11,8.28,12.34,12.25l.25.21a4.29,4.29,0,0,0,2.69.94h0a4.31,4.31,0,0,0,4.31-4.42,4.3,4.3,0,0,0-1.26-2.95l-19-19Zm-25.26.41,5.24,5.24,2.76-2.76-1.32-1.32c-.89-.86-1.75-1.72-2.6-2.6L16.85,31.4ZM30.15,30l5.77,5.77,2.38-2.38-5.77-5.77Zm-10.9,2.34,1.9,1.91,2.56-2.56-1.9-1.9Zm1.59-4.93,1.32,1.32c.89.86,1.75,1.72,2.6,2.6l1.33,1.33,3-3c1-1.06,2-2.08,3.06-3.06l3-3-5.24-5.24Zm17.24-11q-.37,0-.74,0a8.25,8.25,0,0,0-2.82.77,9.63,9.63,0,0,0-1.65,1l-.92.69,2.24,2.24.83-.7A13.5,13.5,0,0,1,37.2,19a11.34,11.34,0,0,1,1.4-.64l-.33-1.94Z" transform="translate(-8.88 -8.88)"/></g><circle class="d" cx="28.62" cy="28.62" r="28.12"/></svg>