<svg xmlns="http://www.w3.org/2000/svg" xmlns:xlink="http://www.w3.org/1999/xlink" viewBox="0 0 57.39 57.25"><defs><style>.a,.b{fill:none;}.b{stroke:#fff;stroke-miterlimit:10;}.c{clip-path:url(#a);}.d{fill:#fff;}</style><clipPath id="a" transform="translate(-8.74 -8.88)"><circle class="a" cx="37.5" cy="37.5" r="28.12"/></clipPath></defs><title>loud</title><circle class="b" cx="28.76" cy="28.62" r="28.12"/><g class="c"><path class="d" d="M16,60.73h-.1a.54.54,0,0,1-.34-.22L8.83,50.75A.54.54,0,0,1,9,50l4.09-2.82a.54.54,0,0,1,.74.14l1.11,1.61L40.17,14.75a.51.51,0,0,1,.4-.22.56.56,0,0,1,.47.23L60.66,43.25a.54.54,0,0,1-.3.82L39.76,49.8l1.19,4.13a.54.54,0,0,1-.37.66l-9.24,2.66-.15,0a.54.54,0,0,1-.51-.39l-1.21-4.22-10.06,2.8,1.11,1.61a.54.54,0,0,1-.14.75l-4.09,2.82A.54.54,0,0,1,16,60.73ZM10,50.58l6.11,8.87,3.21-2.21-6.1-8.86Zm20.48,1.8,1.06,3.7,8.21-2.36-1-3.63ZM15.56,49.87l3.21,4.66L59.35,43.24,40.58,16Z" transform="translate(-8.74 -8.88)"/><path class="d" d="M19.18,49.37a.54.54,0,0,1-.33-.11.53.53,0,0,1-.09-.75L39.65,21.39a.53.53,0,0,1,.42-.21.52.52,0,0,1,.32.11.54.54,0,0,1,.1.75L19.61,49.16A.53.53,0,0,1,19.18,49.37Z" transform="translate(-8.74 -8.88)"/></g></svg>