<svg xmlns="http://www.w3.org/2000/svg" viewBox="0 0 284 53"><defs><style>.a{fill:#fff;}</style></defs><title>one-iota-logo</title><path class="a" d="M79.8,20a10.43,10.43,0,0,1,10.8,10.7,10.43,10.43,0,0,1-10.8,10.7A10.37,10.37,0,0,1,69,30.75,10.37,10.37,0,0,1,79.8,20Zm0,4.3a6.06,6.06,0,0,0-6.3,6.4,6.3,6.3,0,1,0,12.6,0A6.06,6.06,0,0,0,79.8,24.35Z"/><path class="a" d="M105.4,20c5,0,7.4,3.4,7.4,8.6V41h-4.5V29.25c0-3.3-1.7-5-4.3-5-4,0-5.2,3-5.2,7.1V41H94.4V20.55h4.3v2.8A8,8,0,0,1,105.4,20Z"/><path class="a" d="M126.9,20c6.3,0,9.9,4.4,9.9,10.8v1.3H121.1a5.8,5.8,0,0,0,6.1,5.2,8.14,8.14,0,0,0,6.1-2.7l2.1,3.6a11.54,11.54,0,0,1-8.2,3.2c-6.5,0-10.7-4.3-10.7-10.6C116.7,24.85,120.6,20,126.9,20Zm-.1,3.9a5.25,5.25,0,0,0-5.6,4.8H132C131.7,25.95,130,23.95,126.8,23.95Z"/><path class="a" d="M154.6,11.55a3,3,0,0,1,3.1,3.1,3.1,3.1,0,1,1-6.2,0A3.12,3.12,0,0,1,154.6,11.55Zm2.2,9v20.4h-4.4V20.55Z"/><path class="a" d="M171.7,20a10.37,10.37,0,0,1,10.8,10.7,10.8,10.8,0,0,1-21.6,0A10.37,10.37,0,0,1,171.7,20Zm0,4.3a6.06,6.06,0,0,0-6.3,6.4,6.3,6.3,0,1,0,12.6,0A6.06,6.06,0,0,0,171.7,24.35Z"/><path class="a" d="M194,41.15c-3.8,0-5.8-1.7-5.8-6.2V24.35h-3.9v-3.8h3.9V15h4.4v5.5H198v3.8h-5.4v10.4a1.92,1.92,0,0,0,2.2,2.2,18,18,0,0,0,3.1-.3v4A16.66,16.66,0,0,1,194,41.15Z"/><path class="a" d="M210,20c5.8,0,8.5,2.7,8.5,8v12.9h-4.4v-2.8a7.31,7.31,0,0,1-6.5,3.2c-4.2,0-6.9-2.7-6.9-6.3,0-3.8,2.8-6,6.5-6.3l5.7-.6c.9-.1,1.2-.4,1.2-.9v-.4c0-1.6-1.3-2.7-4-2.7-2.5,0-4.6.9-5.2,3.1l-3.6-2.2C202.4,21.95,205.3,20,210,20Zm4.1,11.5-5.9.7c-2,.2-2.9,1.3-2.9,2.7,0,1.6,1.1,2.6,3.3,2.6,3.4,0,5.5-2.4,5.5-4.8v-1.2Z"/></svg>