<svg xmlns="http://www.w3.org/2000/svg" xmlns:xlink="http://www.w3.org/1999/xlink" viewBox="0 0 57.25 57.42"><defs><style>.a,.b{fill:none;}.b{stroke:#fff;stroke-miterlimit:10;}.c{clip-path:url(#a);}.d{fill:#fff;}</style><clipPath id="a" transform="translate(-8.88 -8.88)"><circle class="a" cx="37.5" cy="37.5" r="28.12"/></clipPath></defs><title>peace</title><circle class="b" cx="28.62" cy="28.62" r="28.12"/><g class="c"><path class="d" d="M29,66.3a1.5,1.5,0,0,1-1.5-1.5V58.64a1.5,1.5,0,0,1,1.5-1.5h1.23v-5L30,52a9,9,0,0,1-4.87-8.07V41.36A7.41,7.41,0,0,1,25.87,38l.06-.12L24.56,22.23a3.2,3.2,0,0,1,2.92-3.46h.28a3.19,3.19,0,0,1,3.18,2.89l.32,3.71h1l.6-6.78a3.21,3.21,0,0,1,6.4.56l-.87,10.11.8-.4a3.17,3.17,0,0,1,1.44-.35,3.21,3.21,0,0,1,2.79,1.62l.3.52.46-.39a3.21,3.21,0,0,1,5.26,2.16l0,.27v12a8.54,8.54,0,0,1-3.74,7l-.22.15v5.27h1.25a1.5,1.5,0,0,1,1.5,1.5v6.15a1.5,1.5,0,0,1-1.5,1.5Zm0-8.36a.71.71,0,0,0-.69.71V64.8a.71.71,0,0,0,.7.71H46.71a.71.71,0,0,0,.51-.22.7.7,0,0,0,.19-.51V58.64a.71.71,0,0,0-.69-.71H29Zm2-.79H44.67V52.36l-.68.27a8.61,8.61,0,0,1-3.16.6H34.93a8.35,8.35,0,0,1-2.66-.43l-.08,0h-.08a3.43,3.43,0,0,1-.43-.1L31,52.47ZM31,35.57c-3.3,0-5.08,3-5.08,5.81V43.9a8.29,8.29,0,0,0,3.63,6.89A15.18,15.18,0,0,0,32.37,52h0l.14,0a7.71,7.71,0,0,0,2.4.38h5.86a7.85,7.85,0,0,0,7.89-7.77V40l-.76.46a3.21,3.21,0,0,1-4.09-.65l-.38-.44-.38.44a3.2,3.2,0,0,1-4.89-.06l-.32-.39-.39.33a5,5,0,0,1-3.26,1.21H32.72V42.3l.42.07a5.25,5.25,0,0,1,4.44,5.2.4.4,0,0,1-.79,0,4.48,4.48,0,0,0-4.47-4.46.4.4,0,0,1-.4-.4V40.55a.4.4,0,0,1,.4-.4h1.89a4.27,4.27,0,0,0,4.24-4.06l0-.52Zm15.25-5.28a2.42,2.42,0,0,0-2.4,2.22v5.35a2.4,2.4,0,0,0,2.41,2.36,2.43,2.43,0,0,0,2.41-2.48v-5a2.42,2.42,0,0,0-2.22-2.4Zm-5.63-1a2.41,2.41,0,0,0-2.41,2.39v3.09h.63a.4.4,0,0,1,.4.4V36a5,5,0,0,1-.7,2.42l-.15.25.14.25a2.4,2.4,0,0,0,2,1.25h.14A2.41,2.41,0,0,0,43,37.89v-6.2a2.41,2.41,0,0,0-2.41-2.4ZM27.54,19.57a2.39,2.39,0,0,0-2.2,2.6l1.28,14.61.74-.63a5.73,5.73,0,0,1,3.42-1.35l.52,0-1.14-13a2.38,2.38,0,0,0-.86-1.63,2.44,2.44,0,0,0-1.55-.56ZM36,16.49a2.42,2.42,0,0,0-2.4,2.15L32.27,34.77h4.87l1.33-15.66a2.38,2.38,0,0,0-.56-1.75,2.41,2.41,0,0,0-1.58-.85Z" transform="translate(-8.88 -8.88)"/></g></svg>