<svg xmlns="http://www.w3.org/2000/svg" viewBox="0 0 284 53"><defs><style>.a{fill:#fff;}</style></defs><title>pixel-logo</title><path class="a" d="M63.1,26.75,56.3,16a.68.68,0,0,1,.6-1h4c.2,0,.4.2.6.3l4.4,7.3H66l4.5-7.3A.62.62,0,0,1,71,15h4a.63.63,0,0,1,.6,1l-7,10.8,7.2,11.4c.2.5,0,1-.6,1H71.3a1.14,1.14,0,0,1-.6-.3L65.8,31h-.1l-4.8,7.9a.85.85,0,0,1-.6.3H56.6a.63.63,0,0,1-.6-1Z"/><path class="a" d="M82.7,15.65a.63.63,0,0,1,.7-.7h14a.68.68,0,0,1,.7.7v2.8a.63.63,0,0,1-.7.7H87.3v5.6h8.5a.68.68,0,0,1,.7.7v2.9a.68.68,0,0,1-.7.7H87.3v6H97.4a.68.68,0,0,1,.7.7v2.8a.63.63,0,0,1-.7.7h-14a.68.68,0,0,1-.7-.7Z"/><path class="a" d="M106.5,15.65a.63.63,0,0,1,.7-.7h3.2a.68.68,0,0,1,.7.7V35h8.7a.68.68,0,0,1,.7.7v2.8a.63.63,0,0,1-.7.7H107.2a.68.68,0,0,1-.7-.7V15.65Z"/><path class="a" d="M24.4,15.55A.58.58,0,0,1,25,15h7.9a7.55,7.55,0,0,1,.1,15.1H28.8V38a.68.68,0,0,1-.7.7H25a.68.68,0,0,1-.7-.7l.1-22.4Zm8.3,10.3a3.48,3.48,0,0,0,3.5-3.5,3.44,3.44,0,0,0-3.5-3.3H28.8v6.8Z"/><path class="a" d="M17,11.55a2.81,2.81,0,0,0-.7,1.9,44.75,44.75,0,0,0-.2,4.6,12,12,0,0,1-.7,4.6,5.62,5.62,0,0,1-1.7,2.6,9.21,9.21,0,0,1-2.4,1.3,6.18,6.18,0,0,1,2.4,1.3,6.52,6.52,0,0,1,1.7,2.6,14.17,14.17,0,0,1,.7,4.5,47.94,47.94,0,0,0,.2,4.8,3.42,3.42,0,0,0,.7,1.9,2.65,2.65,0,0,0,1.7.5v.5a6.39,6.39,0,0,1-3.4-.7,4.17,4.17,0,0,1-1.8-2.4,15.17,15.17,0,0,1-.6-4.8c0-2.1-.1-3.8-.2-4.9a5.26,5.26,0,0,0-.7-2.4,2.26,2.26,0,0,0-1.6-.8h-.1v-.6h.2a2.26,2.26,0,0,0,1.6-.8,4.56,4.56,0,0,0,.7-2.4c.1-1.1.2-2.8.2-4.9a13.82,13.82,0,0,1,.6-4.6A4.08,4.08,0,0,1,15.4,11a6.62,6.62,0,0,1,3.4-.7v.6A3.9,3.9,0,0,0,17,11.55Z"/><path class="a" d="M43.9,11v-.6a6.39,6.39,0,0,1,3.4.7,4.52,4.52,0,0,1,1.8,2.4,14.24,14.24,0,0,1,.5,4.6c0,2.1.1,3.8.2,4.9a5.72,5.72,0,0,0,.7,2.4,2.26,2.26,0,0,0,1.6.8h.2v.6h-.2a2.26,2.26,0,0,0-1.6.8,4.56,4.56,0,0,0-.7,2.4c-.1,1.1-.2,2.8-.2,4.9a19,19,0,0,1-.5,4.8A4.08,4.08,0,0,1,47.3,42a6.39,6.39,0,0,1-3.4.7v-.6a2.65,2.65,0,0,0,1.7-.5c.4-.3.6-.9.7-1.9s.2-2.6.2-4.8a11.17,11.17,0,0,1,.7-4.5,5.62,5.62,0,0,1,1.7-2.6,7,7,0,0,1,2.4-1.3,6.18,6.18,0,0,1-2.4-1.3,6.52,6.52,0,0,1-1.7-2.6,14.36,14.36,0,0,1-.7-4.6,44.75,44.75,0,0,0-.2-4.6,3.12,3.12,0,0,0-.7-1.9A3,3,0,0,0,43.9,11Z"/><path class="a" d="M135.7,15.15a.63.63,0,0,1,.7-.7h8.1a7.65,7.65,0,1,1,.1,15.3h-4.3v8.1a.68.68,0,0,1-.7.7h-3.2a.68.68,0,0,1-.7-.7V15.15Zm8.5,10.5a3.45,3.45,0,1,0,0-6.9h-4v6.9Z"/><path class="a" d="M154.5,37.65l10.7-23.1a.57.57,0,0,1,.6-.4h.4a.57.57,0,0,1,.6.4l10.6,23.1a.64.64,0,0,1-.6.9h-3c-.5,0-.7-.2-1-.7l-1.7-3.7H160.8l-1.7,3.7a.92.92,0,0,1-1,.7h-3A.61.61,0,0,1,154.5,37.65Zm14.9-7.3-3.4-7.6h-.1l-3.4,7.6Z"/><path class="a" d="M183.9,15.15a.63.63,0,0,1,.7-.7h3.2a.68.68,0,0,1,.7.7v19.3h8.7a.68.68,0,0,1,.7.7V38a.68.68,0,0,1-.7.7H184.6a.68.68,0,0,1-.7-.7V15.15Z"/><path class="a" d="M203.2,37.65l10.7-23.1a.57.57,0,0,1,.6-.4h.4a.57.57,0,0,1,.6.4l10.6,23.1a.64.64,0,0,1-.6.9h-3c-.5,0-.7-.2-1-.7l-1.7-3.7H209.5l-1.7,3.7a.92.92,0,0,1-1,.7h-3C203.3,38.55,202.9,38.15,203.2,37.65Zm14.8-7.3-3.4-7.6h-.1l-3.4,7.6Z"/><path class="a" d="M242.3,14.15a11.47,11.47,0,0,1,8.3,3.2.77.77,0,0,1,.1,1l-2.1,2.1a.56.56,0,0,1-.9,0,8.13,8.13,0,0,0-5.3-2,7.75,7.75,0,0,0-7.6,8,7.75,7.75,0,0,0,7.7,7.9,8.26,8.26,0,0,0,5.3-2,.75.75,0,0,1,.9,0l2.1,2.2a.64.64,0,0,1-.1.9,11.61,11.61,0,0,1-8.4,3.3,12.31,12.31,0,0,1-12.4-12.3A12.19,12.19,0,0,1,242.3,14.15Z"/><path class="a" d="M258.3,15.15a.68.68,0,0,1,.7-.7h14a.68.68,0,0,1,.7.7V18a.68.68,0,0,1-.7.7H262.9v5.6h8.5a.68.68,0,0,1,.7.7v2.9a.68.68,0,0,1-.7.7h-8.5v6H273a.68.68,0,0,1,.7.7v2.8a.68.68,0,0,1-.7.7H259a.68.68,0,0,1-.7-.7V15.15Z"/></svg>