<svg xmlns="http://www.w3.org/2000/svg" viewBox="0 0 284 53"><defs><style>.a{fill:#fff;}.b{fill:none;}</style></defs><title>ply-logo</title><path class="a" d="M142.32,18.71l-1.92,2a6.38,6.38,0,0,0-4.62-2,5.91,5.91,0,0,0-5.9,6.26,5.93,5.93,0,0,0,5.9,6.27,6.76,6.76,0,0,0,4.69-2l1.85,2.07a8.47,8.47,0,0,1-6.47,2.73,8.72,8.72,0,0,1-9-9.08,8.72,8.72,0,0,1,9-9.08,8.39,8.39,0,0,1,6.47,2.75ZM156,16.52l-.73,3a6.79,6.79,0,0,0-3-.68c-2.66,0-4.52,2-4.52,5.25v9.7h-3V16.32h3v2.29A6.12,6.12,0,0,1,152.76,16a7.84,7.84,0,0,1,3.19.57m3,7.16H169.6c-.36-3.08-2.36-5.06-5.18-5.06-3.08,0-5,2.09-5.46,5.06m13.7,1.3c0,.38,0,.79-.05,1.12H158.92a5.67,5.67,0,0,0,5.92,5.39,8.17,8.17,0,0,0,5.37-2.07l1.6,2.06a9.9,9.9,0,0,1-7.14,2.64c-5.17,0-8.83-3.65-8.83-9.08S159.46,16,164.47,16c4.75,0,8.15,3.69,8.19,9m4.56.06a6,6,0,1,0,12,0,6,6,0,1,0-12,0ZM192,33.75h-3V31.42a7.7,7.7,0,0,1-6.14,2.7c-4.89,0-8.7-3.82-8.7-9.08S178,16,182.86,16A7.66,7.66,0,0,1,189,18.67V16.32h3V33.75Zm16.69-14.7h-7.31v8.49c0,2.62,1.39,3.76,3.28,3.76a6.5,6.5,0,0,0,3.56-1.17l1.41,2.26a8.77,8.77,0,0,1-5.22,1.72c-3.77,0-6-2.07-6-6.51V19.05h-3.72V16.32h3.72V10.85h3v5.47h7.31v2.73ZM212,33.75h3V16.32h-3m16,17.45h-3.52l-7.33-17.45h3.26l5.85,14.4,5.86-14.4h3.17m3.09,7.36H249.1c-.37-3.08-2.36-5.06-5.18-5.06-3.08,0-5,2.09-5.46,5.06M252.16,25c0,.38,0,.79-.06,1.12H238.42a5.67,5.67,0,0,0,5.92,5.39,8.17,8.17,0,0,0,5.37-2.07l1.6,2.05a9.89,9.89,0,0,1-7.14,2.64c-5.17,0-8.83-3.65-8.83-9.08S239,16,244,16c4.75,0,8.15,3.69,8.19,9m-172.86.3c0,2.71,1.31,4.53,3.94,4.53s4.23-1.92,4.23-4.55a4,4,0,0,0-4.15-4.09,4,4,0,0,0-4,4.1m13.28,0c0,5.16-3.48,9.22-8.44,9.22a5.65,5.65,0,0,1-4.82-2.4V41h-5.2V16.68h5.2v1.9a5.53,5.53,0,0,1,4.76-2.36c4.75,0,8.5,3.88,8.5,9m2.23,8.61H100V9.8H94.82m21.53,6.87L112,26.78,107.9,16.67H102l7,17.22-.08.21a3.33,3.33,0,0,1-2.63,1.77h-1.64v5.47h1.64a8.79,8.79,0,0,0,7.56-4.87l.61-1.54,7.8-18.27h-5.94Z"/><path class="b" d="M32.77,11.55a1.85,1.85,0,0,0-.94,1.6V39.89a1.85,1.85,0,0,0,.93,1.6l1.53.88V34.9L52.8,24.13l2.44,1.4L36.75,36.3v7.49l2.46,1.41V37.68L57.69,26.93l2.44,1.4L41.68,39.07v7.55l1.58.91a.59.59,0,0,0,.89-.5V40.46L62,30.06a1.11,1.11,0,0,0,.56-1V26.92L34.29,10.68l-1.52.86Zm11.37,7.6,6.23,3.58-6.23,3.63v-7.2Zm-4.92-2.83,2.46,1.41v10l-2.46,1.43ZM34.3,13.49l2.46,1.41V30.65l-2.46,1.43V13.49Z"/><path class="a" d="M32.77,11.55a1.85,1.85,0,0,0-.94,1.6V39.89a1.85,1.85,0,0,0,.93,1.6l1.53.88V34.9L52.8,24.13l2.44,1.4L36.75,36.3v7.49l2.46,1.41V37.68L57.69,26.93l2.44,1.4L41.68,39.07v7.55l1.58.91a.59.59,0,0,0,.89-.5V40.46L62,30.06a1.11,1.11,0,0,0,.56-1V26.92L34.29,10.68l-1.52.86Zm11.37,7.6,6.23,3.58-6.23,3.63v-7.2Zm-4.92-2.83,2.46,1.41v10l-2.46,1.43ZM34.3,13.49l2.46,1.41V30.65l-2.46,1.43V13.49Z"/><path class="b" d="M36.75,9.28,62.57,24.1V21.29L39.2,7.88l-2.46,1.4"/><path class="a" d="M36.75,9.28,62.57,24.1V21.29L39.2,7.88l-2.46,1.4"/><path class="b" d="M43.07,5.67l-1.41.8,20.91,12V16.73a1.84,1.84,0,0,0-.93-1.6L45.16,5.67a2.1,2.1,0,0,0-2.09,0"/><path class="a" d="M43.07,5.67l-1.41.8,20.91,12V16.73a1.84,1.84,0,0,0-.93-1.6L45.16,5.67a2.1,2.1,0,0,0-2.09,0"/></svg>