<?xml version="1.0" encoding="utf-8"?>
<!-- Generator: Adobe Illustrator 15.0.0, SVG Export Plug-In  -->
<!DOCTYPE svg [
	<!ENTITY ns_flows "http://ns.adobe.com/Flows/1.0/">
]>
<svg version="1.2" baseProfile="tiny"
	 xmlns="http://www.w3.org/2000/svg" xmlns:xlink="http://www.w3.org/1999/xlink" xmlns:a="http://ns.adobe.com/AdobeSVGViewerExtensions/3.0/"
	 x="0px" y="0px" width="420px" height="43px" viewBox="-1.4 -0.2 420 43" xml:space="preserve">
<defs>
</defs>
<path fill="#FFFFFF" d="M29.8,3.9L26,11.4c0,0-4.1-2.8-8.3-2.8c-3.2,0-4.9,1.4-4.9,3.7c0,2.3,3.9,3.9,8.6,5.9
	c4.6,1.9,9.6,5.8,9.6,11.2c0,9.8-7.5,13.3-15.5,13.3C5.8,42.6,0,37.2,0,37.2l4.7-7.9c0,0,5.5,4.6,10.1,4.6c2,0,5.9-0.2,5.9-4
	c0-3-4.4-4.3-9.3-6.8c-4.9-2.4-7.8-6.3-7.8-10.6C3.6,4.9,10.4,0,17,0C24.5,0,29.8,3.9,29.8,3.9z"/>
<path fill="#FFFFFF" d="M71.7,41.9H61.6l-3-8.2H43l-3,8.2H29.8L46.4,0.7h8.7L71.7,41.9z M50.8,13.5h-0.1l-4.6,12h9.3L50.8,13.5z"/>
<path fill="#FFFFFF" d="M106.4,17.5h-0.2l-8.4,24.1h-5.6l-8.4-24.1h-0.2l-1.9,24.4h-9.4l3.7-41.1h10l9.1,23.7l9.1-23.7h10l3.7,41.1
	h-9.4L106.4,17.5z"/>
<path fill="#FFFFFF" d="M144.5,41.9h-9.4V0.7h9.4v16.4h13.3V0.7h9.4v41.1h-9.4V25.4h-13.3V41.9z"/>
<path fill="#FFFFFF" d="M210.4,41.9h-10.1l-3-8.2h-15.6l-3,8.2h-10.1l16.6-41.1h8.7L210.4,41.9z M189.5,13.5h-0.1l-4.6,12h9.3
	L189.5,13.5z"/>
<path fill="#FFFFFF" d="M252.7,41.9h-10.1l-3-8.2H224l-3,8.2h-10.1l16.6-41.1h8.7L252.7,41.9z M231.9,13.5L231.9,13.5l-4.7,12h9.3
	L231.9,13.5z"/>
<path fill="#FFFFFF" d="M278.7,41.9l-15.1-17.4v17.4h-9.4V0.7h9.4v16.8l14.1-16.8H289l-16.5,19.5l19.1,21.6H278.7z"/>
<path fill="#FFFFFF" d="M326.4,17.5h-0.2l-8.4,24.1h-5.6l-8.4-24.1h-0.3l-1.9,24.4h-9.4l3.7-41.1h10l9.1,23.7l9.1-23.7h10l3.7,41.1
	h-9.4L326.4,17.5z"/>
<path fill="#FFFFFF" d="M381.1,41.9H371l-3-8.2h-15.6l-3,8.2h-10.1l16.6-41.1h8.7L381.1,41.9z M360.2,13.5L360.2,13.5l-4.7,12h9.3
	L360.2,13.5z"/>
<path fill="#FFFFFF" d="M392.8,41.9h-9.4V0.7h9.4l16.3,25.5h0.1V0.7h9.4v41.1h-9.4l-16.3-25.5h-0.1V41.9z"/>
</svg>
